<?xml version="1.0" encoding="UTF-8"?>
<svg id="Layer_2" data-name="Layer 2" xmlns="http://www.w3.org/2000/svg" xmlns:xlink="http://www.w3.org/1999/xlink" viewBox="0 0 282.82 50.11">
  <defs>
    <style>
      .cls-1 {
        fill: url(#linear-gradient);
      }

      .cls-1, .cls-2, .cls-3, .cls-4 {
        stroke-width: 0px;
      }

      .cls-2 {
        fill: #3f3f3f;
      }

      .cls-3 {
        fill: url(#linear-gradient-2);
      }

      .cls-4 {
        fill: url(#radial-gradient);
      }
    </style>
    <radialGradient id="radial-gradient" cx="131.29" cy="56.33" fx="131.29" fy="56.33" r="86.98" gradientTransform="translate(-88.48 5.71) scale(1.74 .33)" gradientUnits="userSpaceOnUse">
      <stop offset="0" stop-color="#9ab897"/>
      <stop offset=".46" stop-color="#98b695"/>
      <stop offset=".8" stop-color="#719179"/>
      <stop offset="1" stop-color="#5d736f"/>
    </radialGradient>
    <linearGradient id="linear-gradient" x1="141.41" y1="50.11" x2="141.41" y2="0" gradientUnits="userSpaceOnUse">
      <stop offset=".04" stop-color="#1a1a1a"/>
      <stop offset=".07" stop-color="#333"/>
      <stop offset=".78" stop-color="#333"/>
      <stop offset=".91" stop-color="#666"/>
    </linearGradient>
    <linearGradient id="linear-gradient-2" x1="141.41" y1="5.24" x2="141.41" y2="44.88" gradientUnits="userSpaceOnUse">
      <stop offset=".13" stop-color="#1a1a1a"/>
      <stop offset=".82" stop-color="#4d4d4d"/>
    </linearGradient>
  </defs>
  <g id="Layer_1-2" data-name="Layer 1">
    <g>
      <rect class="cls-4" x="2.52" y="5.23" width="275" height="38"/>
      <g>
        <path class="cls-1" d="M274.54,0H8.28C3.71,0,0,3.71,0,8.28v33.55c0,4.57,3.71,8.28,8.28,8.28h266.27c4.57,0,8.28-3.71,8.28-8.28V8.28c0-4.57-3.71-8.28-8.28-8.28ZM10.73,42.43c-1.5,0-2.71-1.21-2.71-2.71V10.4c0-1.5,1.21-2.71,2.71-2.71h261.36c1.5,0,2.71,1.21,2.71,2.71v29.32c0,1.5-1.21,2.71-2.71,2.71H10.73Z"/>
        <path class="cls-2" d="M273.76,2.45H9.06c-3.65,0-6.61,2.96-6.61,6.61v31.99c0,3.65,2.96,6.61,6.61,6.61h264.7c3.65,0,6.61-2.96,6.61-6.61V9.06c0-3.65-2.96-6.61-6.61-6.61ZM274.8,39.71c0,1.5-1.21,2.71-2.71,2.71H10.73c-1.5,0-2.71-1.21-2.71-2.71V10.4c0-1.5,1.21-2.71,2.71-2.71h261.36c1.5,0,2.71,1.21,2.71,2.71v29.32Z"/>
        <path class="cls-3" d="M273.26,5.24H9.57c-2.27,0-4.11,1.84-4.11,4.11v31.43c0,2.27,1.84,4.11,4.11,4.11h263.69c2.27,0,4.11-1.84,4.11-4.11V9.34c0-2.27-1.84-4.11-4.11-4.11ZM274.8,39.71c0,1.5-1.21,2.71-2.71,2.71H10.73c-1.5,0-2.71-1.21-2.71-2.71V10.4c0-1.5,1.21-2.71,2.71-2.71h261.36c1.5,0,2.71,1.21,2.71,2.71v29.32Z"/>
      </g>
    </g>
  </g>
</svg>